<svg width="457" height="461" viewBox="0 0 457 461" fill="none" xmlns="http://www.w3.org/2000/svg">
<g clip-path="url(#clip0_401_288)">
<path d="M223.689 402.621C222.317 401.669 189.753 378.999 156.741 342.505C137.235 320.945 121.667 299.021 110.457 277.349C96.224 249.816 89 222.572 89 196.392C89 118.981 151.804 56 229 56C306.196 56 369 118.981 369 196.392C369 222.348 361.776 249.452 347.533 276.929C336.333 298.555 320.765 320.479 301.259 342.113C268.256 378.719 235.711 401.632 234.339 402.593L229.019 406.308L223.68 402.621H223.689Z" fill="white"/>
<path d="M359.667 196.392C359.667 303.585 229 394.949 229 394.949C229 394.949 98.3333 304.593 98.3333 196.392C98.3333 124.012 156.835 65.3333 229 65.3333C301.165 65.3333 359.667 124.012 359.667 196.392Z" fill="#1E1E1E"/>
<path d="M229 304.724C288.397 304.724 336.548 256.573 336.548 197.176C336.548 137.779 288.397 89.628 229 89.628C169.603 89.628 121.452 137.779 121.452 197.176C121.452 256.573 169.603 304.724 229 304.724Z" fill="white"/>
<path fill-rule="evenodd" clip-rule="evenodd" d="M329.231 189.663C313.243 212.809 286.531 227.985 256.263 227.985C207.328 227.985 167.652 188.319 167.652 139.384C167.652 131.068 168.8 123.023 170.937 115.388C145.355 133.588 128.667 163.483 128.667 197.269C128.667 252.728 173.625 297.687 229.084 297.687C284.543 297.687 329.501 252.728 329.501 197.269C329.501 194.712 329.408 192.173 329.221 189.663H329.231Z" fill="#C55B06"/>
<path fill-rule="evenodd" clip-rule="evenodd" d="M329.231 189.663C313.243 212.809 286.531 227.985 256.263 227.985C207.328 227.985 167.652 188.319 167.652 139.384C167.652 131.068 168.8 123.023 170.937 115.388C145.355 133.588 128.667 163.483 128.667 197.269C128.667 252.728 173.625 297.687 229.084 297.687C284.543 297.687 329.501 252.728 329.501 197.269C329.501 194.712 329.408 192.173 329.221 189.663H329.231Z" fill="url(#paint0_linear_401_288)" fill-opacity="0.2"/>
<path fill-rule="evenodd" clip-rule="evenodd" d="M329.231 189.663C325.348 137.751 281.995 96.8427 229.093 96.8427C187.495 96.8427 151.813 122.136 136.563 158.172C143.861 140.905 155.855 126.112 170.947 115.379C168.809 123.013 167.661 131.059 167.661 139.375C167.661 188.309 207.328 227.976 256.272 227.976C286.531 227.976 313.252 212.809 329.231 189.653V189.663Z" fill="#F48B0A"/>
<path fill-rule="evenodd" clip-rule="evenodd" d="M229.849 297.687C270.421 280.047 298.795 239.605 298.795 192.547C298.795 154.028 279.792 119.952 250.644 99.1667C295.743 109.032 329.511 149.203 329.511 197.269C329.511 252.476 284.963 297.276 229.849 297.687Z" fill="#F6EBD0"/>
<path fill-rule="evenodd" clip-rule="evenodd" d="M229.849 297.687C270.421 280.047 298.795 239.605 298.795 192.547C298.795 154.028 279.792 119.952 250.644 99.1667C295.743 109.032 329.511 149.203 329.511 197.269C329.511 252.476 284.963 297.276 229.849 297.687Z" fill="url(#paint1_linear_401_288)" fill-opacity="0.2"/>
<path fill-rule="evenodd" clip-rule="evenodd" d="M295.799 218.699C287.501 254.24 262.665 283.416 229.849 297.687C236.737 297.64 243.467 296.893 249.953 295.521C255.637 294.317 261.135 292.637 266.417 290.528C303.396 275.716 329.511 239.549 329.511 197.279C329.511 194.721 329.417 192.183 329.231 189.681C320.747 201.964 309.248 211.997 295.799 218.717V218.699Z" fill="url(#paint2_linear_401_288)"/>
<path fill-rule="evenodd" clip-rule="evenodd" d="M329.231 189.663C313.243 212.809 286.531 227.985 256.263 227.985C207.328 227.985 167.652 188.319 167.652 139.384C167.652 131.068 168.8 123.023 170.937 115.388C145.355 133.588 128.667 163.483 128.667 197.269C128.667 252.728 173.625 297.687 229.084 297.687C284.543 297.687 329.501 252.728 329.501 197.269C329.501 194.712 329.408 192.173 329.221 189.663H329.231Z" fill="#C55B06"/>
<path fill-rule="evenodd" clip-rule="evenodd" d="M329.231 189.663C313.243 212.809 286.531 227.985 256.263 227.985C207.328 227.985 167.652 188.319 167.652 139.384C167.652 131.068 168.8 123.023 170.937 115.388C145.355 133.588 128.667 163.483 128.667 197.269C128.667 252.728 173.625 297.687 229.084 297.687C284.543 297.687 329.501 252.728 329.501 197.269C329.501 194.712 329.408 192.173 329.221 189.663H329.231Z" fill="url(#paint3_linear_401_288)" fill-opacity="0.2"/>
<path fill-rule="evenodd" clip-rule="evenodd" d="M329.231 189.663C325.348 137.751 281.995 96.8427 229.093 96.8427C187.495 96.8427 151.813 122.136 136.563 158.172C143.861 140.905 155.855 126.112 170.947 115.379C168.809 123.013 167.661 131.059 167.661 139.375C167.661 188.309 207.328 227.976 256.272 227.976C286.531 227.976 313.252 212.809 329.231 189.653V189.663Z" fill="#F48B0A"/>
<path fill-rule="evenodd" clip-rule="evenodd" d="M229.849 297.687C270.421 280.047 298.795 239.605 298.795 192.547C298.795 154.028 279.792 119.952 250.644 99.1667C295.743 109.032 329.511 149.203 329.511 197.269C329.511 252.476 284.963 297.276 229.849 297.687Z" fill="#F6EBD0"/>
<path fill-rule="evenodd" clip-rule="evenodd" d="M229.849 297.687C270.421 280.047 298.795 239.605 298.795 192.547C298.795 154.028 279.792 119.952 250.644 99.1667C295.743 109.032 329.511 149.203 329.511 197.269C329.511 252.476 284.963 297.276 229.849 297.687Z" fill="url(#paint4_linear_401_288)" fill-opacity="0.2"/>
<path fill-rule="evenodd" clip-rule="evenodd" d="M295.799 218.699C287.501 254.24 262.665 283.416 229.849 297.687C236.737 297.64 243.467 296.893 249.953 295.521C255.637 294.317 261.135 292.637 266.417 290.528C303.396 275.716 329.511 239.549 329.511 197.279C329.511 194.721 329.417 192.183 329.231 189.681C320.747 201.964 309.248 211.997 295.799 218.717V218.699Z" fill="url(#paint5_linear_401_288)"/>
</g>
<defs>
<linearGradient id="paint0_linear_401_288" x1="128.452" y1="270.088" x2="228.869" y2="197.428" gradientUnits="userSpaceOnUse">
<stop offset="0.44" stop-opacity="0.89"/>
<stop offset="1" stop-opacity="0"/>
</linearGradient>
<linearGradient id="paint1_linear_401_288" x1="282.041" y1="131.469" x2="280.268" y2="218.895" gradientUnits="userSpaceOnUse">
<stop stop-opacity="0"/>
<stop offset="0.63"/>
</linearGradient>
<linearGradient id="paint2_linear_401_288" x1="279.68" y1="189.672" x2="279.68" y2="297.687" gradientUnits="userSpaceOnUse">
<stop stop-color="#F48B0A"/>
<stop offset="1" stop-color="#F48B0A" stop-opacity="0"/>
</linearGradient>
<linearGradient id="paint3_linear_401_288" x1="128.452" y1="270.088" x2="228.869" y2="197.428" gradientUnits="userSpaceOnUse">
<stop offset="0.44" stop-opacity="0.89"/>
<stop offset="1" stop-opacity="0"/>
</linearGradient>
<linearGradient id="paint4_linear_401_288" x1="282.041" y1="131.469" x2="280.268" y2="218.895" gradientUnits="userSpaceOnUse">
<stop stop-opacity="0"/>
<stop offset="0.63"/>
</linearGradient>
<linearGradient id="paint5_linear_401_288" x1="279.68" y1="189.672" x2="279.68" y2="297.687" gradientUnits="userSpaceOnUse">
<stop stop-color="#F48B0A"/>
<stop offset="1" stop-color="#F48B0A" stop-opacity="0"/>
</linearGradient>
<clipPath id="clip0_401_288">
<rect width="280" height="350.308" fill="white" transform="translate(89 56)"/>
</clipPath>
</defs>
</svg>
