<svg width="680" height="347" viewBox="0 0 680 347" fill="none" xmlns="http://www.w3.org/2000/svg">
<g clip-path="url(#clip0_403_373)">
<path d="M150.037 256.945C149.364 256.479 133.398 245.363 117.213 227.471C107.649 216.9 100.016 206.151 94.5203 195.526C87.5419 182.026 84 168.669 84 155.833C84 117.879 114.792 87 152.641 87C190.489 87 221.282 117.879 221.282 155.833C221.282 168.559 217.74 181.848 210.757 195.32C205.265 205.922 197.633 216.672 188.069 227.279C171.888 245.226 155.931 256.46 155.258 256.932L152.65 258.753L150.032 256.945H150.037Z" fill="white"/>
<path d="M216.705 155.833C216.705 208.389 152.641 253.184 152.641 253.184C152.641 253.184 88.5759 208.883 88.5759 155.833C88.5759 120.346 117.259 91.576 152.641 91.576C188.023 91.576 216.705 120.346 216.705 155.833Z" fill="#1E1E1E"/>
<path d="M152.641 208.947C181.763 208.947 205.371 185.339 205.371 156.217C205.371 127.095 181.763 103.487 152.641 103.487C123.519 103.487 99.9109 127.095 99.9109 156.217C99.9109 185.339 123.519 208.947 152.641 208.947Z" fill="white"/>
<path fill-rule="evenodd" clip-rule="evenodd" d="M201.783 152.534C193.944 163.882 180.848 171.323 166.007 171.323C142.015 171.323 122.562 151.875 122.562 127.882C122.562 123.805 123.125 119.861 124.173 116.117C111.63 125.041 103.448 139.698 103.448 156.263C103.448 183.454 125.491 205.497 152.682 205.497C179.873 205.497 201.916 183.454 201.916 156.263C201.916 155.009 201.87 153.765 201.778 152.534H201.783Z" fill="#C55B06"/>
<path fill-rule="evenodd" clip-rule="evenodd" d="M201.783 152.534C193.944 163.882 180.848 171.323 166.007 171.323C142.015 171.323 122.562 151.875 122.562 127.882C122.562 123.805 123.125 119.861 124.173 116.117C111.63 125.041 103.448 139.698 103.448 156.263C103.448 183.454 125.491 205.497 152.682 205.497C179.873 205.497 201.916 183.454 201.916 156.263C201.916 155.009 201.87 153.765 201.778 152.534H201.783Z" fill="url(#paint0_linear_403_373)" fill-opacity="0.2"/>
<path fill-rule="evenodd" clip-rule="evenodd" d="M201.783 152.534C199.879 127.082 178.624 107.025 152.687 107.025C132.291 107.025 114.797 119.426 107.32 137.094C110.898 128.628 116.778 121.375 124.178 116.113C123.13 119.856 122.567 123.801 122.567 127.878C122.567 151.87 142.015 171.318 166.012 171.318C180.848 171.318 193.949 163.882 201.783 152.529V152.534Z" fill="#F48B0A"/>
<path fill-rule="evenodd" clip-rule="evenodd" d="M153.057 205.497C172.949 196.848 186.86 177.02 186.86 153.948C186.86 135.062 177.544 118.355 163.253 108.164C185.364 113.001 201.92 132.696 201.92 156.263C201.92 183.33 180.079 205.296 153.057 205.497Z" fill="#F6EBD0"/>
<path fill-rule="evenodd" clip-rule="evenodd" d="M153.057 205.497C172.949 196.848 186.86 177.02 186.86 153.948C186.86 135.062 177.544 118.355 163.253 108.164C185.364 113.001 201.92 132.696 201.92 156.263C201.92 183.33 180.079 205.296 153.057 205.497Z" fill="url(#paint1_linear_403_373)" fill-opacity="0.2"/>
<path fill-rule="evenodd" clip-rule="evenodd" d="M185.392 166.77C181.323 184.195 169.147 198.5 153.057 205.497C156.434 205.474 159.734 205.108 162.914 204.435C165.701 203.845 168.396 203.021 170.986 201.987C189.116 194.725 201.92 176.993 201.92 156.268C201.92 155.014 201.874 153.769 201.783 152.543C197.623 158.565 191.986 163.484 185.392 166.779V166.77Z" fill="url(#paint2_linear_403_373)"/>
<path fill-rule="evenodd" clip-rule="evenodd" d="M201.783 152.534C193.944 163.882 180.848 171.323 166.007 171.323C142.015 171.323 122.562 151.875 122.562 127.882C122.562 123.805 123.125 119.861 124.173 116.117C111.63 125.041 103.448 139.698 103.448 156.263C103.448 183.454 125.491 205.497 152.682 205.497C179.873 205.497 201.916 183.454 201.916 156.263C201.916 155.009 201.87 153.765 201.778 152.534H201.783Z" fill="#C55B06"/>
<path fill-rule="evenodd" clip-rule="evenodd" d="M201.783 152.534C193.944 163.882 180.848 171.323 166.007 171.323C142.015 171.323 122.562 151.875 122.562 127.882C122.562 123.805 123.125 119.861 124.173 116.117C111.63 125.041 103.448 139.698 103.448 156.263C103.448 183.454 125.491 205.497 152.682 205.497C179.873 205.497 201.916 183.454 201.916 156.263C201.916 155.009 201.87 153.765 201.778 152.534H201.783Z" fill="url(#paint3_linear_403_373)" fill-opacity="0.2"/>
<path fill-rule="evenodd" clip-rule="evenodd" d="M201.783 152.534C199.879 127.082 178.624 107.025 152.687 107.025C132.291 107.025 114.797 119.426 107.32 137.094C110.898 128.628 116.778 121.375 124.178 116.113C123.13 119.856 122.567 123.801 122.567 127.878C122.567 151.87 142.015 171.318 166.012 171.318C180.848 171.318 193.949 163.882 201.783 152.529V152.534Z" fill="#F48B0A"/>
<path fill-rule="evenodd" clip-rule="evenodd" d="M153.057 205.497C172.949 196.848 186.86 177.02 186.86 153.948C186.86 135.062 177.544 118.355 163.253 108.164C185.364 113.001 201.92 132.696 201.92 156.263C201.92 183.33 180.079 205.296 153.057 205.497Z" fill="#F6EBD0"/>
<path fill-rule="evenodd" clip-rule="evenodd" d="M153.057 205.497C172.949 196.848 186.86 177.02 186.86 153.948C186.86 135.062 177.544 118.355 163.253 108.164C185.364 113.001 201.92 132.696 201.92 156.263C201.92 183.33 180.079 205.296 153.057 205.497Z" fill="url(#paint4_linear_403_373)" fill-opacity="0.2"/>
<path fill-rule="evenodd" clip-rule="evenodd" d="M185.392 166.77C181.323 184.195 169.147 198.5 153.057 205.497C156.434 205.474 159.734 205.108 162.914 204.435C165.701 203.845 168.396 203.021 170.986 201.987C189.116 194.725 201.92 176.993 201.92 156.268C201.92 155.014 201.874 153.769 201.783 152.543C197.623 158.565 191.986 163.484 185.392 166.779V166.77Z" fill="url(#paint5_linear_403_373)"/>
</g>
<path d="M296.832 141.414C304.658 141.414 311.468 143.243 317.262 146.902C323.055 150.561 327.222 155.186 329.763 160.776V142.633H340.436V228.011C340.436 235.634 338.759 242.393 335.404 248.288C332.152 254.183 327.578 258.706 321.683 261.857C315.788 265.11 309.08 266.736 301.558 266.736C290.886 266.736 281.993 264.195 274.878 259.113C267.865 254.031 263.494 247.119 261.766 238.378H272.286C274.115 244.172 277.571 248.796 282.653 252.252C287.837 255.708 294.139 257.436 301.558 257.436C306.945 257.436 311.773 256.267 316.042 253.929C320.311 251.693 323.665 248.339 326.104 243.867C328.544 239.395 329.763 234.109 329.763 228.011V207.429C327.121 213.121 322.903 217.847 317.109 221.608C311.417 225.267 304.658 227.096 296.832 227.096C289.209 227.096 282.348 225.317 276.25 221.76C270.253 218.203 265.527 213.171 262.071 206.666C258.717 200.162 257.04 192.64 257.04 184.102C257.04 175.565 258.717 168.094 262.071 161.691C265.527 155.186 270.253 150.205 276.25 146.75C282.348 143.192 289.209 141.414 296.832 141.414ZM329.763 184.255C329.763 177.547 328.391 171.651 325.647 166.569C322.903 161.487 319.142 157.574 314.365 154.83C309.689 152.086 304.506 150.714 298.814 150.714C292.919 150.714 287.634 152.035 282.958 154.678C278.283 157.32 274.573 161.183 271.829 166.265C269.186 171.245 267.865 177.191 267.865 184.102C267.865 190.912 269.186 196.909 271.829 202.093C274.573 207.175 278.283 211.088 282.958 213.832C287.634 216.475 292.919 217.796 298.814 217.796C304.506 217.796 309.689 216.424 314.365 213.68C319.142 210.935 322.903 207.022 325.647 201.94C328.391 196.858 329.763 190.963 329.763 184.255ZM440.115 179.986C440.115 183.645 440.013 186.44 439.81 188.371H370.745C371.05 194.673 372.575 200.06 375.319 204.532C378.063 209.004 381.672 212.409 386.144 214.747C390.616 216.983 395.495 218.101 400.78 218.101C407.692 218.101 413.485 216.424 418.16 213.07C422.938 209.716 426.088 205.193 427.613 199.501H438.895C436.862 207.632 432.492 214.289 425.783 219.473C419.177 224.555 410.842 227.096 400.78 227.096C392.954 227.096 385.941 225.368 379.74 221.913C373.54 218.355 368.662 213.375 365.104 206.971C361.649 200.466 359.921 192.894 359.921 184.255C359.921 175.615 361.649 168.043 365.104 161.538C368.56 155.033 373.388 150.053 379.588 146.597C385.788 143.141 392.852 141.414 400.78 141.414C408.708 141.414 415.619 143.141 421.515 146.597C427.511 150.053 432.085 154.728 435.236 160.624C438.488 166.417 440.115 172.871 440.115 179.986ZM429.29 179.681C429.392 173.481 428.121 168.196 425.479 163.825C422.938 159.455 419.431 156.151 414.959 153.915C410.487 151.679 405.608 150.561 400.323 150.561C392.395 150.561 385.636 153.102 380.045 158.184C374.455 163.266 371.355 170.432 370.745 179.681H429.29ZM488.303 227.096C478.749 227.096 470.922 224.911 464.824 220.54C458.827 216.068 455.473 210.021 454.762 202.398H465.739C466.247 207.073 468.432 210.885 472.294 213.832C476.258 216.678 481.544 218.101 488.15 218.101C493.944 218.101 498.467 216.729 501.719 213.985C505.073 211.24 506.75 207.835 506.75 203.77C506.75 200.924 505.836 198.586 504.006 196.757C502.177 194.927 499.839 193.504 496.993 192.488C494.249 191.37 490.488 190.201 485.711 188.981C479.511 187.355 474.48 185.729 470.617 184.102C466.755 182.476 463.452 180.088 460.708 176.937C458.065 173.684 456.744 169.365 456.744 163.978C456.744 159.912 457.963 156.151 460.403 152.696C462.842 149.24 466.298 146.496 470.77 144.463C475.242 142.43 480.324 141.414 486.016 141.414C494.96 141.414 502.177 143.7 507.665 148.274C513.154 152.746 516.101 158.946 516.508 166.874H505.836C505.531 161.996 503.6 158.083 500.042 155.135C496.586 152.086 491.809 150.561 485.711 150.561C480.324 150.561 475.954 151.832 472.599 154.373C469.245 156.914 467.568 160.065 467.568 163.825C467.568 167.078 468.534 169.771 470.465 171.906C472.498 173.938 474.988 175.565 477.935 176.784C480.883 177.902 484.847 179.173 489.827 180.596C495.824 182.222 500.601 183.797 504.159 185.322C507.716 186.847 510.765 189.083 513.306 192.03C515.847 194.978 517.169 198.891 517.27 203.77C517.27 208.242 516.051 212.257 513.611 215.814C511.172 219.27 507.767 222.014 503.396 224.047C499.026 226.08 493.995 227.096 488.303 227.096ZM548.031 113.056V225.876H537.359V113.056H548.031ZM577.535 126.93C575.4 126.93 573.571 126.168 572.046 124.643C570.522 123.118 569.759 121.238 569.759 119.002C569.759 116.766 570.522 114.936 572.046 113.513C573.571 111.989 575.4 111.226 577.535 111.226C579.669 111.226 581.499 111.989 583.023 113.513C584.548 114.936 585.31 116.766 585.31 119.002C585.31 121.238 584.548 123.118 583.023 124.643C581.499 126.168 579.669 126.93 577.535 126.93ZM582.871 142.633V225.876H572.199V142.633H582.871Z" fill="#1E1E1E"/>
<defs>
<linearGradient id="paint0_linear_403_373" x1="103.343" y1="191.966" x2="152.577" y2="156.341" gradientUnits="userSpaceOnUse">
<stop offset="0.44" stop-opacity="0.89"/>
<stop offset="1" stop-opacity="0"/>
</linearGradient>
<linearGradient id="paint1_linear_403_373" x1="178.646" y1="124.002" x2="177.777" y2="166.866" gradientUnits="userSpaceOnUse">
<stop stop-opacity="0"/>
<stop offset="0.63"/>
</linearGradient>
<linearGradient id="paint2_linear_403_373" x1="177.489" y1="152.538" x2="177.489" y2="205.497" gradientUnits="userSpaceOnUse">
<stop stop-color="#F48B0A"/>
<stop offset="1" stop-color="#F48B0A" stop-opacity="0"/>
</linearGradient>
<linearGradient id="paint3_linear_403_373" x1="103.343" y1="191.966" x2="152.577" y2="156.341" gradientUnits="userSpaceOnUse">
<stop offset="0.44" stop-opacity="0.89"/>
<stop offset="1" stop-opacity="0"/>
</linearGradient>
<linearGradient id="paint4_linear_403_373" x1="178.646" y1="124.002" x2="177.777" y2="166.866" gradientUnits="userSpaceOnUse">
<stop stop-opacity="0"/>
<stop offset="0.63"/>
</linearGradient>
<linearGradient id="paint5_linear_403_373" x1="177.489" y1="152.538" x2="177.489" y2="205.497" gradientUnits="userSpaceOnUse">
<stop stop-color="#F48B0A"/>
<stop offset="1" stop-color="#F48B0A" stop-opacity="0"/>
</linearGradient>
<clipPath id="clip0_403_373">
<rect width="137.282" height="171.753" fill="white" transform="translate(84 87)"/>
</clipPath>
</defs>
</svg>
